<?xml version="1.0" encoding="UTF-8"?>
<svg id="Layer_1" data-name="Layer 1" xmlns="http://www.w3.org/2000/svg" xmlns:xlink="http://www.w3.org/1999/xlink" viewBox="0 0 187.63 210.69">
  <defs>
    <style>
      .cls-1 {
        fill: none;
      }

      .cls-1, .cls-2, .cls-3, .cls-4, .cls-5, .cls-6 {
        stroke-width: 0px;
      }

      .cls-2 {
        fill: url(#New_Pattern);
      }

      .cls-4 {
        fill: #f2f2f2;
      }

      .cls-5 {
        fill: #db3a8a;
      }

      .cls-6 {
        fill: #ff7bac;
      }
    </style>
    <pattern id="New_Pattern" data-name="New Pattern" x="0" y="0" width="4.32" height="2.88" patternTransform="translate(-87.08 -68.38)" patternUnits="userSpaceOnUse" viewBox="0 0 4.32 2.88">
      <g>
        <rect class="cls-1" width="4.32" height="2.88"/>
        <circle class="cls-6" cx="4.32" cy="2.88" r=".75"/>
        <circle class="cls-6" cx="0" cy="2.88" r=".75"/>
        <circle class="cls-6" cx="4.32" cy="0" r=".75"/>
        <circle class="cls-6" cx="2.16" cy="1.44" r=".75"/>
        <circle class="cls-6" cx="0" cy="0" r=".75"/>
      </g>
    </pattern>
  </defs>
  <g>
    <path class="cls-5" d="m79.4,65.72l-6.46,15.91c13.78.72,27.51,2.11,41.14,4.19-6.04,10.2-12.09,20.41-18.13,30.61,7.13.75,14.26,1.49,21.38,2.24-6.94,10.45-13.24,21.27-18.88,32.39-.5.99-.98,2.24-.27,3.11.62.76,1.79.79,2.8.74,8.03-.37,16.03-1.16,23.96-2.39,1.62-.25,3.5-.45,4.69.62,1,.9,1.1,2.35,1.11,3.65.17,17.55-.63,30.29-8.44,46.21l.35.16c-3.65-10.32-15.52-19.32-25.38-24.91-7.65-4.35-16.38-6.61-24.79-9.46-24.11-8.16-46.94-22.13-60.18-42.89-13.24-20.76-15.09-48.96-.25-68.72,3.24-4.32,7.3-8.24,12.34-10.55,5.22-2.39,11.2-2.91,16.98-2.49,15.26,1.1,29.84,8.84,38.81,20.58"/>
    <path class="cls-3" d="m77.95,65.32l-6.46,15.91c-.39.96.58,1.85,1.45,1.9,13.64.72,27.23,2.09,40.74,4.13l-.9-2.2c-6.04,10.2-12.09,20.41-18.13,30.61-.63,1.06.21,2.14,1.3,2.26,7.13.75,14.26,1.49,21.38,2.24l-1.3-2.26c-4.9,7.39-9.51,14.98-13.79,22.76-1.07,1.94-2.11,3.89-3.14,5.85-.9,1.71-2.1,3.51-2.6,5.38-.46,1.72.14,3.49,1.87,4.18s3.97.27,5.8.16c4.58-.27,9.15-.69,13.71-1.24,2.25-.27,4.49-.58,6.73-.92,1.53-.23,3.99-.86,4.49,1.14.44,1.73.16,3.81.16,5.58,0,1.98-.02,3.96-.08,5.93-.1,3.71-.33,7.42-.79,11.1-1.06,8.52-3.63,16.71-7.38,24.42-.33.68-.24,1.69.54,2.05l.35.16c1.06.5,2.69-.35,2.2-1.69-3.08-8.48-10.12-14.96-17.25-20.15-3.78-2.75-7.78-5.29-11.98-7.33-4.71-2.28-9.69-3.96-14.66-5.57-9.21-2.97-18.26-6.17-26.91-10.56s-16.2-9.25-23.25-15.32c-13.76-11.84-23.99-27.62-26.38-45.86-1.15-8.78-.47-17.81,2.38-26.21s8.2-17.12,15.85-22.05c8.42-5.44,19.45-4.96,28.8-2.52,8.87,2.31,17.17,6.87,23.73,13.28,1.6,1.56,3.1,3.23,4.46,5,.5.65,1.28.98,2.05.54.64-.36,1.03-1.41.54-2.05-5.78-7.51-13.46-13.31-22.18-17-8.97-3.79-19.35-5.62-29-3.76-10.13,1.95-17.66,9.35-22.71,18C3.01,69.05.61,78,.2,87.03c-.85,18.81,6.77,36.84,19.24,50.68,12.83,14.24,29.94,24.12,47.75,30.79,9.94,3.72,20.53,5.99,29.8,11.32,7.97,4.58,16.08,10.36,21.27,18.09,1.19,1.77,2.22,3.65,2.95,5.66l2.2-1.69-.35-.16.54,2.05c3.36-6.89,5.88-14.14,7.18-21.71s1.5-14.88,1.48-22.35c0-3.4.33-8.06-4.04-8.77-1.94-.32-3.94.19-5.86.47-2.3.33-4.61.62-6.92.88-4.48.5-8.98.86-13.48,1.08-.47.02-2.15.32-2.54-.09-.44-.46.52-1.85.75-2.3,1.01-1.97,2.03-3.93,3.08-5.88,4.72-8.79,9.86-17.36,15.37-25.67.69-1.04-.25-2.15-1.3-2.26-7.13-.75-14.26-1.49-21.38-2.24l1.3,2.26c6.04-10.2,12.09-20.41,18.13-30.61.45-.75.08-2.06-.9-2.2-13.77-2.09-27.63-3.51-41.53-4.24l1.45,1.9,6.46-15.91c.73-1.79-2.18-2.57-2.89-.8h0Z"/>
  </g>
  <g>
    <path class="cls-5" d="m136.2,209.18c15.53-31.01,41.2-61.61,45.08-95.96,3.2-28.26,1.98-58.12-11.57-83.24-2.85-5.27-6.31-10.39-11.21-13.92-10.24-7.38-31.96-18.19-50.96-1.06-9.36,8.44-14.05,21.38-12.42,33.76.51,3.86,1.51,7.89.12,11.53-2.09,5.48-8.84,8.05-11.29,13.39,13.96,1.28,27.78,4.06,41.13,8.28,1.05.33,2.26.84,2.48,1.91.15.71-.22,1.41-.57,2.05-4.85,8.69-9.7,17.38-14.55,26.06,5.46.2,10.92.4,16.38.6.92.03,1.95.11,2.6.76,1.06,1.06.46,2.82-.2,4.15-4.27,8.64-8.54,17.28-12.81,25.92,5.2.12,10.4.25,15.59.37,4.5,21.38,5.35,43.49,2.52,65.15l-.33.26Z"/>
    <path class="cls-3" d="m137.5,209.93c10.42-20.75,24.17-39.65,34.15-60.64,4.85-10.19,8.84-20.91,10.6-32.1s2.36-23.88,1.87-35.73-2.23-23.86-5.9-35.23c-1.82-5.66-4.12-11.18-6.91-16.43-2.64-4.97-5.8-9.87-10.14-13.54-6.22-5.25-14.27-9.17-22.2-10.93-10.02-2.22-20.34-.47-28.73,5.57-9.04,6.51-15.07,16.52-16.56,27.57-.36,2.64-.47,5.3-.29,7.96.21,3.04.96,6.02,1.05,9.07.08,2.78-.67,5.22-2.51,7.32-1.52,1.74-3.35,3.18-5.04,4.75s-3.24,3.27-4.24,5.35c-.52,1.08.12,2.15,1.3,2.26,9.62.89,19.17,2.5,28.55,4.81,2.32.57,4.63,1.18,6.92,1.84,1.15.33,2.29.67,3.43,1.01.88.27,2.13.43,2.87,1.01.79.61-.38,1.91-.77,2.61-.61,1.09-1.21,2.17-1.82,3.26-1.25,2.24-2.51,4.49-3.76,6.73-2.75,4.92-5.5,9.85-8.24,14.77-.57,1.02.15,2.22,1.3,2.26,4.3.16,8.61.31,12.91.47,1.08.04,2.15.08,3.23.12.52.02,1.6-.09,1.88.49.26.54-.25,1.54-.46,2.01-.44.96-.93,1.89-1.4,2.84-3.83,7.75-7.66,15.49-11.49,23.24-.5,1.02.11,2.23,1.3,2.26,5.2.12,10.4.25,15.59.37l-1.45-1.1c3.46,16.54,4.74,33.49,3.8,50.36-.27,4.81-.72,9.61-1.34,14.38l.44-1.06-.33.26c-1.51,1.2.62,3.31,2.12,2.12.64-.5.73-1.01.83-1.8.14-1.11.28-2.23.4-3.35.25-2.23.45-4.47.62-6.71.33-4.4.51-8.82.54-13.23.06-8.99-.5-17.98-1.67-26.9-.66-4.99-1.5-9.95-2.53-14.88-.14-.65-.82-1.09-1.45-1.1-5.2-.12-10.4-.25-15.59-.37l1.3,2.26c2.21-4.47,4.42-8.94,6.63-13.41,2.16-4.37,4.54-8.69,6.48-13.16.7-1.61,1.12-3.6-.11-5.07-1.31-1.58-3.5-1.44-5.36-1.5-4.96-.18-9.93-.36-14.89-.54l1.3,2.26c2.71-4.85,5.41-9.7,8.12-14.55,1.33-2.39,2.67-4.78,4-7.17.65-1.16,1.29-2.32,1.94-3.48s1.4-2.31,1.26-3.67c-.22-2.21-2.44-3-4.26-3.57-2.51-.78-5.03-1.51-7.57-2.19-5.07-1.36-10.2-2.52-15.37-3.47-5.93-1.09-11.91-1.9-17.91-2.46l1.3,2.26c2.01-4.2,6.37-6.47,9.23-10,1.6-1.97,2.6-4.18,2.88-6.72.32-2.99-.33-5.96-.73-8.91-1.41-10.44,1.8-21.4,8.69-29.39,6.88-7.98,16.73-12.69,27.32-12,8.18.53,16.02,3.92,22.81,8.36,4.18,2.74,7.53,6.16,10.25,10.36,3.08,4.75,5.56,9.94,7.61,15.22,4.22,10.88,6.52,22.42,7.44,34.03.93,11.73.52,23.55-.69,35.25-1.13,10.93-4.1,21.42-8.45,31.51-8.95,20.77-22.13,39.3-32.93,59.08-1.3,2.38-2.56,4.78-3.78,7.21-.86,1.72,1.72,3.24,2.59,1.51Z"/>
  </g>
  <path class="cls-2" d="m77.76,65.44l-6.46,15.91c13.78.72,27.51,2.11,41.14,4.19-6.04,10.2-12.09,20.41-18.13,30.61,7.13.75,14.26,1.49,21.38,2.24-6.94,10.45-13.24,21.27-18.88,32.39-.5.99-.98,2.24-.27,3.11.62.76,1.79.79,2.8.74,8.03-.37,16.03-1.16,23.96-2.39,1.62-.25,3.5-.45,4.69.62,1,.9,1.1,2.35,1.11,3.65.17,17.55-.63,30.29-8.44,46.21l.35.16c-3.65-10.32-15.52-19.32-25.38-24.91-7.65-4.35-16.38-6.61-24.79-9.46-24.11-8.16-46.94-22.13-60.18-42.89-13.24-20.76-15.09-48.96-.25-68.72,3.24-4.32,7.3-8.24,12.34-10.55,5.22-2.39,11.2-2.91,16.98-2.49,15.26,1.1,29.84,8.84,38.81,20.58"/>
  <g>
    <path class="cls-6" d="m81.65,65.46c-2.04,5.3-4.07,10.6-6.11,15.9,13.04.72,26.04,2.11,38.94,4.19-5.72,10.2-11.44,20.4-17.16,30.6,6.75.75,13.49,1.49,20.24,2.24-6.57,10.44-12.54,21.26-17.87,32.38-.47.99-.92,2.24-.26,3.1.58.76,1.7.79,2.65.74,7.6-.37,15.18-1.16,22.68-2.39,1.53-.25,3.31-.45,4.43.62.94.9,1.04,2.35,1.05,3.65.17,17.54-.59,30.28-7.99,46.19l.33.16c-3.46-10.31-14.69-19.31-24.02-24.9-7.25-4.34-15.51-6.61-23.46-9.45-22.83-8.15-44.43-22.12-56.97-42.87s-14.28-48.93-.24-68.68c3.07-4.32,6.91-8.24,11.68-10.54,4.94-2.39,10.6-2.91,16.07-2.49,14.44,1.1,28.25,8.83,36.74,20.57"/>
    <path class="cls-3" d="m80.2,65.06l-6.11,15.9c-.37.97.56,1.85,1.45,1.9,12.91.72,25.77,2.09,38.54,4.13l-.9-2.2c-5.72,10.2-11.44,20.4-17.16,30.6-.6,1.07.19,2.13,1.3,2.26,6.75.75,13.49,1.49,20.24,2.24l-1.3-2.26c-4.63,7.37-8.96,14.91-12.99,22.62-1.02,1.96-2.03,3.94-3.01,5.92-.86,1.73-2.02,3.55-2.5,5.43-.42,1.63.05,3.33,1.64,4.11s3.85.36,5.58.25c4.44-.28,8.88-.7,13.29-1.28,2.14-.28,4.27-.58,6.41-.92,1.56-.25,3.62-.7,3.98,1.35.32,1.81.11,3.82.11,5.66,0,1.99-.03,3.98-.08,5.97-.1,3.67-.32,7.33-.76,10.98-1.01,8.41-3.41,16.55-6.96,24.23-.32.69-.24,1.67.54,2.05l.33.16c1.08.53,2.66-.36,2.2-1.69-2.88-8.37-9.53-14.9-16.41-20.17-3.58-2.74-7.39-5.3-11.41-7.34-4.48-2.28-9.23-3.96-13.97-5.57-8.8-2.99-17.4-6.25-25.59-10.67-7.87-4.24-15.3-9.31-21.9-15.34-13.09-11.97-22.51-27.73-24.7-45.52-1.07-8.66-.51-17.54,2.1-25.89s7.31-16.75,14.36-21.94c7.97-5.87,18.72-5.56,27.89-3.05,8.48,2.32,16.31,6.94,22.44,13.25,1.53,1.58,2.95,3.26,4.25,5.03,1.13,1.54,3.73.05,2.59-1.51-5.42-7.43-12.75-13.37-21.19-17.06s-18.63-5.64-27.88-3.58c-9.7,2.17-16.66,9.84-21.24,18.28-4.24,7.82-6.42,16.64-6.78,25.51-.76,18.49,6.22,36.36,18.1,50.36,11.93,14.06,28.07,24.06,45.07,30.83,9.45,3.76,19.59,6.05,28.36,11.35,7.67,4.64,15.34,10.49,20.23,18.14,1.14,1.79,2.11,3.68,2.8,5.69l2.2-1.69-.33-.16.54,2.05c3.17-6.86,5.54-14.03,6.77-21.5s1.45-14.84,1.44-22.3c0-3.19.52-7.99-3.54-8.95-1.75-.41-3.57.04-5.3.31-2.27.35-4.54.66-6.82.94-4.42.52-8.86.9-13.3,1.13-.45.02-1.81.3-2.16-.1-.38-.42.55-1.91.75-2.31.96-1.99,1.95-3.98,2.95-5.95,4.45-8.74,9.3-17.27,14.51-25.57.66-1.05-.23-2.14-1.3-2.26-6.75-.75-13.49-1.49-20.24-2.24l1.3,2.26c5.72-10.2,11.44-20.4,17.16-30.6.43-.76.09-2.05-.9-2.2-13.03-2.09-26.16-3.51-39.34-4.24l1.45,1.9c2.04-5.3,4.07-10.6,6.11-15.9.69-1.8-2.21-2.58-2.89-.8h0Z"/>
  </g>
  <path class="cls-2" d="m136.1,209.54c15.53-31.01,41.2-61.61,45.08-95.96,3.2-28.26,1.98-58.12-11.57-83.24-2.85-5.27-6.31-10.39-11.21-13.92-10.24-7.38-31.96-18.19-50.96-1.06-9.36,8.44-14.05,21.38-12.42,33.76.51,3.86,1.51,7.89.12,11.53-2.09,5.48-8.84,8.05-11.29,13.39,13.96,1.28,27.78,4.06,41.13,8.28,1.05.33,2.26.84,2.48,1.91.15.71-.22,1.41-.57,2.05-4.85,8.69-9.7,17.38-14.55,26.06,5.46.2,10.92.4,16.38.6.92.03,1.95.11,2.6.76,1.06,1.06.46,2.82-.2,4.15-4.27,8.64-8.54,17.28-12.81,25.92,5.2.12,10.4.25,15.59.37,4.5,21.38,5.35,43.49,2.52,65.15l-.33.26Z"/>
  <g>
    <path class="cls-6" d="m141.51,199.33c14.87-30.18,39.45-59.95,43.18-93.39,3.06-27.5,1.89-56.57-11.08-81.01-2.73-5.13-6.05-10.11-10.73-13.55-9.81-7.18-30.61-17.71-48.8-1.04-8.96,8.21-13.46,20.8-11.89,32.86.49,3.75,1.45,7.68.12,11.22-2,5.33-8.46,7.84-10.81,13.03,13.37,1.24,26.6,3.95,39.39,8.06,1,.32,2.16.82,2.37,1.85.14.69-.21,1.37-.55,1.99-4.64,8.46-9.29,16.91-13.93,25.37,5.23.19,10.46.39,15.69.58.89.03,1.86.1,2.49.74,1.01,1.03.44,2.74-.19,4.04-4.09,8.41-8.18,16.82-12.27,25.23,4.98.12,9.96.24,14.93.36,4.31,20.81,5.13,42.33,2.42,63.4l-.32.25Z"/>
    <path class="cls-3" d="m142.81,200.08c9.99-20.22,23.21-38.68,32.76-59.13,4.61-9.87,8.39-20.21,10.08-31.01,1.79-11.42,2.27-23.25,1.82-34.79-.46-11.6-2.12-23.22-5.62-34.31-1.73-5.47-3.9-10.81-6.55-15.91s-5.56-9.7-9.75-13.33c-5.92-5.12-13.67-8.96-21.28-10.69-9.75-2.22-19.78-.43-27.86,5.57-8.57,6.37-14.21,16-15.65,26.57-.35,2.59-.47,5.2-.3,7.8.19,2.92.89,5.78,1.01,8.71.11,2.68-.53,5.08-2.26,7.16-1.45,1.74-3.23,3.15-4.87,4.69s-3.16,3.23-4.12,5.27c-.51,1.08.12,2.15,1.3,2.26,9.26.87,18.44,2.45,27.46,4.71,2.25.56,4.49,1.17,6.71,1.82,1.07.31,2.15.64,3.21.97.64.2,2.29.42,2.73,1.02s-.61,1.89-.92,2.44c-.6,1.09-1.2,2.19-1.8,3.28-1.16,2.11-2.32,4.23-3.48,6.34-2.64,4.81-5.28,9.62-7.93,14.43-.56,1.02.15,2.21,1.3,2.26,4.09.15,8.17.3,12.26.45.98.04,1.96.07,2.94.11.69.03,1.8-.12,2.02.68.18.66-.49,1.76-.75,2.31-.43.89-.86,1.77-1.29,2.66-3.59,7.38-7.18,14.75-10.76,22.13-.5,1.02.1,2.23,1.3,2.26,4.98.12,9.96.24,14.93.36l-1.45-1.1c3.31,16.12,4.54,32.63,3.64,49.06-.26,4.66-.69,9.31-1.28,13.94l.44-1.06-.32.25c-1.51,1.21.63,3.32,2.12,2.12,1.24-1,1.02-3.44,1.18-4.91.24-2.16.44-4.32.6-6.49.33-4.33.5-8.68.53-13.02.06-8.69-.47-17.39-1.58-26.01-.64-4.92-1.45-9.82-2.45-14.68-.13-.65-.82-1.09-1.45-1.1-4.98-.12-9.96-.24-14.93-.36l1.3,2.26c2.08-4.28,4.16-8.56,6.24-12.83s4.25-8.43,6.18-12.72c.69-1.54,1.22-3.4.26-4.95-1.16-1.87-3.56-1.73-5.47-1.8-4.74-.18-9.48-.35-14.22-.53l1.3,2.26c2.56-4.67,5.12-9.33,7.69-14,1.28-2.33,2.56-4.67,3.84-7,.64-1.17,1.28-2.33,1.92-3.5.59-1.07,1.28-2.15,1.25-3.42-.05-2.08-2-3.02-3.72-3.58-2.43-.79-4.89-1.51-7.36-2.18-4.93-1.35-9.92-2.5-14.95-3.45-5.71-1.07-11.47-1.87-17.25-2.41l1.3,2.26c1.9-4.02,6.01-6.24,8.74-9.61,1.61-1.99,2.61-4.21,2.87-6.78.29-2.89-.34-5.76-.72-8.61-1.32-10.05,1.68-20.64,8.21-28.41s15.9-12.41,26.08-11.79c7.89.48,15.45,3.82,21.97,8.16,8.74,5.82,13.58,15.62,17.19,25.2,3.98,10.54,6.14,21.7,7,32.92.87,11.34.48,22.76-.66,34.07-1.08,10.68-3.93,20.91-8.12,30.79-8.55,20.2-21.23,38.27-31.57,57.54-1.22,2.28-2.41,4.58-3.56,6.9-.85,1.73,1.73,3.25,2.59,1.51Z"/>
  </g>
  <path class="cls-4" d="m128.53,19.62c4-2.14,8.43-2.94,12.94-2.52,4.11.38,8.47,1.53,11.92,3.86,6.24,4.21,7.93,12.35,9.35,19.23.39,1.89,3.28,1.09,2.89-.8-1.28-6.15-2.77-12.59-6.86-17.54-4.57-5.54-12.5-7.77-19.45-7.86-4.31-.06-8.51,1.01-12.31,3.05-1.7.91-.19,3.5,1.51,2.59h0Z"/>
  <path class="cls-4" d="m165.56,52.81c1.93,0,1.93-3,0-3s-1.93,3,0,3h0Z"/>
  <path class="cls-4" d="m55.59,150.53c5.95,6.05,13.86,9.35,21.66,12.32,9.26,3.52,18.54,6.99,27.81,10.48,1.81.68,2.59-2.22.8-2.89-9.01-3.4-18.03-6.78-27.03-10.19-7.57-2.86-15.34-5.97-21.11-11.84-1.36-1.38-3.48.74-2.12,2.12h0Z"/>
  <path class="cls-4" d="m112.43,179.93c1.93,0,1.93-3,0-3s-1.93,3,0,3h0Z"/>
  <path class="cls-4" d="m126.88,19.79c2.64,2.35,6.08,2.3,9.4,2.63,3.8.38,7.62,1.32,11.11,2.88,6.41,2.87,11.94,7.91,14.55,14.53l2.74-1.16c-.17-.33-.33-.66-.5-.98-.88-1.72-3.47-.2-2.59,1.51.17.33.33.66.5.98.76,1.49,3.37.44,2.74-1.16-2.68-6.79-7.9-12.26-14.38-15.57-3.45-1.77-7.18-2.97-11-3.61-1.85-.31-3.71-.46-5.58-.62-1.71-.15-3.56-.37-4.89-1.56-1.44-1.28-3.57.83-2.12,2.12h0Z"/>
  <path class="cls-4" d="m133.17,19.75c10.11-1.67,22.27,1.53,26.55,11.81l2.2-1.69c-4.66-1.99-6.75-7.2-10.97-9.83-2.7-1.67-6.13-2.14-9.2-2.69-3.53-.63-7.1-1.05-10.68-1.28-1.7-.11-2.02,2.53-.4,2.95,6.95,1.79,13.9,3.58,20.85,5.36,1.87.48,2.67-2.41.8-2.89-6.95-1.79-13.9-3.58-20.85-5.36l-.4,2.95c3.4.21,6.77.6,10.12,1.21,2.94.53,6.31.92,8.8,2.71,3.86,2.77,5.88,7.52,10.43,9.46,1.02.43,2.77-.33,2.2-1.69-2.16-5.19-6.23-9.34-11.31-11.75-5.91-2.81-12.54-3.21-18.93-2.15-1.9.31-1.09,3.21.8,2.89h0Z"/>
  <path class="cls-4" d="m57.58,150.23c1.47-2.62,4.72-3.6,7.57-3.16,3.66.57,6.75,3.02,9.48,5.35,5.45,4.66,10.48,9.85,16.42,13.91,3.34,2.28,6.97,4.11,10.87,5.19,1.86.52,2.66-2.38.8-2.89-7.46-2.07-13.47-7.11-19.11-12.19-2.88-2.6-5.7-5.3-8.75-7.71s-6.41-4.46-10.32-4.73-7.68,1.36-9.56,4.71c-.94,1.69,1.65,3.2,2.59,1.51h0Z"/>
  <path class="cls-4" d="m56.24,148.06c-2.09,1.05-1.35,3.8.43,4.69,1.12.56,2.46.75,3.67,1.06,1.44.37,2.89.73,4.33,1.1v-2.89c-1.18.39-2.21-.31-3.1-1.05-.14-.12-1.3-1-1.26-1.21.02-.12,1.15.13,1.23.16,1.32.5,2.56,1.34,3.8,2.01,1.39.75,2.78,1.51,4.16,2.26,2.56,1.39,5.13,2.76,7.67,4.17,2.07,1.15,4.15,2.4,5.36,4.51l2.36-1.82c-3.53-3.27-7.22-6.37-11.06-9.28-3.14-2.39-7.18-6.27-11.48-5.55-1.9.32-3.46,1.84-3.03,3.89s2.18,2.91,3.93,3.6c4.8,1.9,9.64,3.73,14.45,5.59,1.2.46,2.42-1.17,1.69-2.2-3.09-4.42-6.79-9.33-12.47-10.28-.92-.15-1.94.39-1.9,1.45.17,4.78,4.34,7.96,8.31,9.84s8.64,3.02,12.34,5.78l1.51-2.59c-3.02-2.03-6.27-3.68-9.69-4.93-2.96-1.08-6.61-1.46-9-3.67-1.41-1.31-3.54.8-2.12,2.12,2.53,2.35,5.88,2.96,9.05,4,3.64,1.2,7.06,2.93,10.24,5.07,1.63,1.1,3.03-1.46,1.51-2.59-3.28-2.44-7.21-3.6-10.94-5.16-3.29-1.37-8.08-3.75-8.23-7.87l-1.9,1.45c4.9.82,8.01,5.09,10.67,8.9l1.69-2.2c-3.65-1.41-7.3-2.82-10.96-4.24-.93-.36-1.87-.72-2.8-1.08-.64-.25-1.46-.46-2-.91-.79-.65-.42-.99.43-1.04s1.69.24,2.44.6c1.53.73,2.9,1.82,4.26,2.81,1.48,1.07,2.93,2.18,4.36,3.31,2.94,2.33,5.78,4.78,8.53,7.32,1.23,1.14,3.22-.3,2.36-1.82-1.77-3.1-4.94-4.78-7.98-6.42-3.94-2.14-7.89-4.28-11.83-6.42-1.57-.85-3.32-2.05-5.19-1.72-1.62.29-3.01,1.75-2.74,3.46.24,1.55,1.83,2.72,3.02,3.58,1.49,1.07,3.27,1.67,5.07,1.07,1.35-.45,1.5-2.51,0-2.89-1.36-.35-2.73-.69-4.09-1.04-.64-.16-1.28-.33-1.92-.49-.3-.08-.61-.15-.91-.23-.12-.03-.24-.06-.36-.11-.29-.16-.43,0-.44.51,1.73-.87.21-3.45-1.51-2.59h0Z"/>
  <path class="cls-4" d="m55.98,147.68c-1.28,1.26-2.05,3.39-.7,4.91.67.75,1.69,1.1,2.58,1.51.97.45,1.95.9,2.92,1.35,3.94,1.82,7.88,3.65,11.83,5.47,1.18.55,2.51-.35,2.2-1.69-.03-.15-.07-.3-.1-.45-.43-1.88-3.33-1.08-2.89.8.03.15.07.3.1.45l2.2-1.69c-3.23-1.49-6.45-2.99-9.68-4.48-1.59-.73-3.17-1.47-4.76-2.2-.41-.19-.82-.38-1.23-.57-.2-.09-.74-.24-.88-.43.04.05,0,0,.02-.15.04-.26.34-.52.51-.7,1.38-1.35-.74-3.48-2.12-2.12h0Z"/>
  <path class="cls-4" d="m102.44,171.56l2.22.78c.2.06.4.07.6.03.2,0,.39-.07.56-.18.31-.18.61-.54.69-.9.09-.38.07-.81-.15-1.16l-.23-.3c-.19-.19-.41-.31-.66-.39l-2.22-.78c-.2-.06-.4-.07-.6-.03-.2,0-.39.07-.56.18-.31.18-.61.54-.69.9-.09.38-.07.81.15,1.16l.23.3c.19.19.41.31.66.39h0Z"/>
</svg>