<?xml version="1.0" encoding="UTF-8"?>
<svg id="Layer_1" data-name="Layer 1" xmlns="http://www.w3.org/2000/svg" viewBox="0 0 37.5 42.5">
  <defs>
    <style>
      .cls-1 {
        opacity: .5;
      }

      .cls-2 {
        fill: #ff7bac;
        stroke-width: 0px;
      }
    </style>
  </defs>
  <g class="cls-1">
    <path class="cls-2" d="M15.68,13.59l-1.28,3.32c2.72.15,5.44.44,8.14.87l-3.59,6.39,4.23.47c-1.37,2.18-2.62,4.44-3.73,6.76-.1.21-.19.47-.05.65.12.16.35.16.55.16,1.59-.08,3.17-.24,4.74-.5.32-.05.69-.09.93.13.2.19.22.49.22.76.03,3.67-.12,6.33-1.67,9.65l.07.03c-.72-2.15-3.07-4.03-5.02-5.2-1.51-.91-3.24-1.38-4.9-1.97-4.77-1.7-9.28-4.62-11.9-8.96s-2.98-10.22-.05-14.35c.64-.9,1.44-1.72,2.44-2.2,1.03-.5,2.22-.61,3.36-.52,3.02.23,5.9,1.85,7.68,4.3"/>
  </g>
  <g class="cls-1">
    <path class="cls-2" d="M28.18,41.56c3.11-6.31,8.24-12.53,9.02-19.51.64-5.75.4-11.82-2.32-16.92-.57-1.07-1.26-2.11-2.24-2.83-2.05-1.5-6.39-3.7-10.2-.22-1.87,1.72-2.81,4.35-2.48,6.87.1.78.3,1.6.02,2.34-.42,1.11-1.77,1.64-2.26,2.72,2.79.26,5.56.83,8.23,1.68.21.07.45.17.5.39.03.14-.04.29-.11.42-.97,1.77-1.94,3.53-2.91,5.3,1.09.04,2.19.08,3.28.12.19,0,.39.02.52.15.21.21.09.57-.04.84-.85,1.76-1.71,3.51-2.56,5.27,1.04.03,2.08.05,3.12.08.9,4.35,1.07,8.84.5,13.25l-.07.05Z"/>
  </g>
</svg>